<svg width="190" height="177" viewBox="0 0 190 177" fill="none" xmlns="http://www.w3.org/2000/svg">
<g clip-path="url(#clip0_39_422)">
<path d="M106.081 72.0772C106.081 77.1764 106.114 82.0885 106.062 86.996C106.043 88.6567 106.663 89.8637 107.779 91.1128C112.062 95.9173 116.256 100.806 120.39 105.742C124.945 111.178 129.252 116.829 133.943 122.143C137.166 125.797 139.901 129.759 142.57 133.787C144.292 136.388 146.187 138.849 148.003 141.375C148.913 142.643 149.992 143.097 151.615 142.695C154.303 142.026 157.038 141.535 159.778 141.085C161.716 140.767 163.644 140.997 165.234 142.278C167.04 143.743 167.219 146.138 165.549 147.747C160.993 152.121 155.678 155.541 150.597 159.237C147.839 161.244 145.338 160.584 143.377 157.745C137.419 149.104 129.355 142.531 121.745 135.509C117.561 131.649 113.353 127.818 109.065 124.075C106.686 121.998 104.678 119.421 102.262 117.568C95.0281 112.034 88.7886 105.452 82.0049 99.4587C78.8476 96.6705 75.9624 93.5548 74.6113 89.3678C73.9733 87.3843 73.7669 85.3352 73.7012 83.2955C73.5839 79.4828 73.7246 75.6607 73.6214 71.8433C73.5886 70.6035 73.917 70.0655 75.1414 69.7334C78.0501 68.9428 80.9306 68.0258 83.7923 67.0902C86.3585 66.2481 86.7713 64.9803 85.8424 61.205C85.3404 59.1513 83.7219 59.8296 82.5209 60.0308C76.8115 60.9758 71.8152 63.5675 67.091 66.8095C63.2441 69.448 60.3027 72.8444 57.7177 76.6992C56.3103 78.7951 54.7997 80.7973 53.594 83.0335C52.5244 85.0171 49.5782 86.4907 48.2646 86.0042C46.0972 85.2042 44.5819 82.2289 45.0886 79.3658C46.1301 73.4338 47.9081 67.7264 50.174 62.1266C52.3273 56.8028 56.0007 52.9948 60.8281 50.1364C68.1513 45.7997 75.8404 42.16 84.2239 40.6209C89.6283 39.6291 95.2861 39.5823 100.024 43.3623C103.463 46.1084 105.236 49.575 105.668 54.1128C106.245 60.1805 105.696 66.2247 106.086 72.0772H106.081Z" fill="#083080"/>
<path d="M49.8738 162.512C48.0489 162.535 46.3928 162.222 44.9619 161.482C39.1493 158.479 33.7637 154.839 29.0019 150.315C27.4256 148.818 27.3881 147.027 27.9933 145.24C28.6313 143.35 30.1607 142.578 32.1827 142.826C35.7997 143.275 36.921 140.187 38.3143 138.04C43.0995 130.653 48.9215 124.052 53.9412 116.866C58.7123 110.036 64.3138 103.805 68.5126 96.5769C69.3148 95.1969 69.8637 96.0576 70.3563 96.6377C72.0217 98.5932 73.6308 100.596 75.2259 102.602C77.961 106.036 81.395 108.764 84.5476 111.772C85.9081 113.068 86.0113 114.017 84.2286 115.079C81.001 116.997 78.6318 119.996 75.681 122.213C71.3743 125.451 67.4054 129.039 63.3521 132.552C58.4824 136.781 53.5659 140.954 48.6963 145.184C46.9182 146.727 46.7728 148.187 48.2881 150.03C49.8128 151.883 51.5205 153.586 53.0639 155.424C54.2743 156.86 54.401 158.619 53.6456 160.233C52.9232 161.777 51.6659 162.867 49.8691 162.507L49.8738 162.512Z" fill="#083080"/>
<path d="M114.943 75.6185C113.587 75.7402 113.963 74.725 113.958 74.042C113.939 70.3836 113.902 66.7206 113.977 63.0622C114.052 59.4413 113.812 55.8531 113.343 52.0357C119.114 55.4134 125.32 55.0906 131.522 54.4029C133.497 54.183 135.454 53.5327 137.349 52.8825C139.244 52.2322 140.717 52.6673 141.914 54.1643C143.063 55.5958 142.674 56.9525 141.768 58.4168C138.639 63.4833 133.807 66.6645 128.989 69.7848C124.828 72.4795 120.441 74.8513 115.393 75.5718C115.243 75.5858 115.093 75.6045 114.938 75.6185H114.943Z" fill="#083080"/>
<path d="M122.768 30.8107C121.295 29.9265 119.775 29.1125 118.227 28.3733C116.266 27.4377 115.337 25.1781 116.13 23.1618L116.2 22.9794C117.073 20.7666 119.644 19.7186 121.793 20.7432C123.636 21.6227 125.442 22.5911 127.192 23.6437C129.233 24.8694 129.773 27.5874 128.403 29.5289L128.295 29.6832C127.042 31.461 124.631 31.9335 122.764 30.8154L122.768 30.8107Z" fill="#083080"/>
<path d="M47.9878 112.53C46.0878 113.961 43.3527 113.517 42.0532 111.528C35.3962 101.363 31.9011 89.6345 31.9011 77.3495C31.9011 65.0645 35.3399 53.5842 41.8515 43.4886C47.3779 34.9181 54.8747 27.8494 63.6945 22.8437C65.7962 21.6507 68.4656 22.4554 69.5117 24.6308L69.5868 24.7851C70.5298 26.7547 69.7604 29.0938 67.8604 30.1744C51.0278 39.7507 40.3503 57.8647 40.3503 77.3495C40.3503 87.9784 43.3715 98.1207 49.1278 106.916C50.3053 108.717 49.8503 111.126 48.1285 112.422L47.9925 112.525L47.9878 112.53Z" fill="#083080"/>
<path d="M139.718 114.808L139.591 114.7C137.916 113.302 137.635 110.859 138.911 109.091C145.559 99.8938 149.185 88.7643 149.185 77.3542C149.185 72.2362 148.477 67.2025 147.079 62.3418C146.473 60.246 147.567 58.0425 149.621 57.294L149.781 57.2379C152.047 56.4098 154.524 57.6823 155.19 59.9933C156.813 65.6166 157.634 71.4362 157.634 77.3542C157.634 90.5467 153.44 103.412 145.751 114.041C144.339 115.991 141.576 116.352 139.723 114.808H139.718Z" fill="#083080"/>
<path d="M94.7653 140.042C88.6947 140.042 82.7273 139.186 76.9757 137.497C74.6628 136.819 73.3962 134.335 74.2406 132.08L74.3016 131.921C75.0663 129.881 77.2806 128.805 79.3776 129.418C84.3505 130.878 89.5157 131.617 94.77 131.617C98.5418 131.617 102.281 131.233 105.935 130.475C108.047 130.035 110.129 131.331 110.716 133.399L110.763 133.558C111.42 135.879 109.951 138.246 107.582 138.732C103.388 139.598 99.0954 140.033 94.77 140.033L94.7653 140.042Z" fill="#083080"/>
<path d="M150.475 6.14716H140.098C136.678 6.14716 133.882 9.47804 133.882 13.5434V37.2058C133.882 41.2758 136.678 44.602 140.098 44.602H150.475C153.895 44.602 156.691 41.2711 156.691 37.2058V13.5434C156.691 9.47336 153.895 6.14716 150.475 6.14716ZM152.891 33.089C152.891 35.2363 151.409 37.0046 149.621 37.0046H141.05C139.239 37.0046 137.762 35.2456 137.762 33.089V15.396C137.762 13.244 139.239 11.4803 141.05 11.4803H149.621C151.409 11.4803 152.891 13.244 152.891 15.396V33.089Z" fill="#083080"/>
<path d="M106.677 9.02894C105.86 7.24187 104.725 5.67934 103.318 4.32266C101.91 2.96598 100.254 1.90403 98.3729 1.13213C96.4916 0.383613 94.4931 0 92.382 0C90.2709 0 88.3662 0.383613 86.5741 1.13213C84.782 1.89935 83.1916 2.96598 81.7889 4.32266C80.405 5.67934 79.3166 7.24187 78.5237 9.02894C77.7543 10.8394 77.3462 12.7622 77.3462 14.8206C77.3462 16.879 77.7543 18.7128 78.5237 20.4765C79.3166 22.2402 80.405 23.8027 81.7889 25.1126C83.1963 26.4459 84.782 27.5125 86.5741 28.3032C88.3662 29.0938 90.2943 29.4774 92.382 29.4774C94.4696 29.4774 96.4869 29.0938 98.3729 28.3032C100.254 27.5125 101.91 26.4459 103.318 25.1126C104.725 23.8027 105.86 22.2402 106.677 20.4765C107.493 18.7128 107.901 16.8322 107.901 14.8206C107.901 12.8089 107.493 10.8394 106.677 9.02894Z" fill="#083080"/>
<path d="M185.778 168.579H4.22222C1.89035 168.579 0 170.464 0 172.79C0 175.115 1.89035 177 4.22222 177H185.778C188.11 177 190 175.115 190 172.79C190 170.464 188.11 168.579 185.778 168.579Z" fill="#083080"/>
</g>
<defs>
<clipPath id="clip0_39_422">
<rect width="190" height="177" fill="white"/>
</clipPath>
</defs>
</svg>
